<svg width="0" height="0" class="hidden">
  <symbol xmlns="http://www.w3.org/2000/svg" viewBox="0 0 405.272 405.272" id="check" fill="currentColor">
    <path d="M393.401 124.425L179.603 338.208c-15.832 15.835-41.514 15.835-57.361 0L11.878 227.836c-15.838-15.835-15.838-41.52 0-57.358 15.841-15.841 41.521-15.841 57.355-.006l81.698 81.699L336.037 67.064c15.841-15.841 41.523-15.829 57.358 0 15.835 15.838 15.835 41.514.006 57.361z"></path>
  </symbol>
  <symbol xmlns="http://www.w3.org/2000/svg" viewBox="0 0 477.867 477.867" id="trash" fill="currentColor">
    <path d="M443.733 68.267H324.267V51.2c0-28.277-22.923-51.2-51.2-51.2H204.8c-28.277 0-51.2 22.923-51.2 51.2v17.067H34.133c-9.426 0-17.067 7.641-17.067 17.067S24.708 102.4 34.133 102.4h18.551l32.649 359.953c.805 8.814 8.216 15.55 17.067 15.514h273.067c8.851.037 16.261-6.699 17.067-15.514L425.182 102.4h18.552c9.426 0 17.067-7.641 17.067-17.067s-7.642-17.066-17.068-17.066zm-256-17.067c0-9.426 7.641-17.067 17.067-17.067h68.267c9.426 0 17.067 7.641 17.067 17.067v17.067h-102.4V51.2zm172.152 392.533H117.982L87.04 102.4h303.872l-31.027 341.333z"></path>
    <path d="M187.738 391.392l-.005-.07-17.067-238.933c-.669-9.426-8.853-16.524-18.278-15.855-9.426.669-16.524 8.853-15.855 18.278L153.6 393.745c.637 8.949 8.095 15.878 17.067 15.855h1.229c9.403-.653 16.496-8.805 15.842-18.208zm51.195-254.859c-9.426 0-17.067 7.641-17.067 17.067v238.933c0 9.426 7.641 17.067 17.067 17.067S256 401.959 256 392.533V153.6c0-9.426-7.641-17.067-17.067-17.067zm86.545 0c-9.426-.669-17.609 6.429-18.278 15.855l-17.067 238.933c-.691 9.4 6.369 17.581 15.769 18.272l.086.006h1.212c8.972.023 16.43-6.906 17.067-15.855l17.067-238.933c.669-9.425-6.43-17.608-15.856-18.278z"></path>
  </symbol>
  <symbol xmlns="http://www.w3.org/2000/svg" viewBox="0 0 477.873 477.873" id="edit" fill="currentColor">
    <path d="M392.533 238.937c-9.426 0-17.067 7.641-17.067 17.067V426.67c0 9.426-7.641 17.067-17.067 17.067H51.2c-9.426 0-17.067-7.641-17.067-17.067V85.337c0-9.426 7.641-17.067 17.067-17.067H256c9.426 0 17.067-7.641 17.067-17.067S265.426 34.137 256 34.137H51.2C22.923 34.137 0 57.06 0 85.337V426.67c0 28.277 22.923 51.2 51.2 51.2h307.2c28.277 0 51.2-22.923 51.2-51.2V256.003c0-9.425-7.641-17.066-17.067-17.066z"></path>
    <path d="M458.742 19.142A65.328 65.328 0 00412.536.004a64.85 64.85 0 00-46.199 19.149L141.534 243.937a17.254 17.254 0 00-4.113 6.673l-34.133 102.4c-2.979 8.943 1.856 18.607 10.799 21.585 1.735.578 3.552.873 5.38.875a17.336 17.336 0 005.393-.87l102.4-34.133c2.515-.84 4.8-2.254 6.673-4.13l224.802-224.802c25.515-25.512 25.518-66.878.007-92.393zm-24.139 68.277L212.736 309.286l-66.287 22.135 22.067-66.202L390.468 43.353c12.202-12.178 31.967-12.158 44.145.044a31.215 31.215 0 019.12 21.955 31.043 31.043 0 01-9.13 22.067z"></path>
  </symbol>
  <symbol xmlns="http://www.w3.org/2000/svg" viewBox="0 0 512.007 512.007" id="save" fill="currentColor">
    <path d="M511.927 126.537a15.028 15.028 0 00-3.315-8.027c-.747-.913 6.893 6.786-114.006-114.113A15.116 15.116 0 00383.994.003H44.999c-24.813 0-45 20.187-45 45v422c0 24.813 20.187 45 45 45h422c24.813 0 45-20.187 45-45 .001-364.186.041-339.316-.072-340.466zM345 30.003v98c0 8.271-6.729 15-15 15h-19v-113zm-64 0v113H142c-8.271 0-15-6.729-15-15v-98zm64 291H127v-19c0-8.271 6.729-15 15-15h188c8.271 0 15 6.729 15 15zm-218 161v-131h218v131zm355-15c0 8.271-6.729 15-15 15h-92v-180c0-24.813-20.187-45-45-45H142c-24.813 0-45 20.187-45 45v180H45c-8.271 0-15-6.729-15-15v-422c0-8.271 6.729-15 15-15h52v98c0 24.813 20.187 45 45 45h188c24.813 0 45-20.187 45-45v-98h2.787L482 134.217z"></path>
  </symbol>
</svg>